<?xml version="1.0" encoding="utf-8"?>
<!DOCTYPE svg PUBLIC "-//W3C//DTD SVG 1.1//EN" "http://www.w3.org/Graphics/SVG/1.1/DTD/svg11.dtd">
<svg version="1.1" xmlns="http://www.w3.org/2000/svg" xmlns:xlink="http://www.w3.org/1999/xlink" x="0px" y="0px"
	 width="266.893px" height="266.895px" viewBox="0 0 266.893 266.895" enable-background="new 0 0 266.893 266.895"
	 xml:space="preserve">
<g id="Background" display="none">
	<rect x="-123.553" y="-112.553" display="inline" fill="#E9EAEC" width="512" height="500"/>
	<rect x="388.447" y="-112.553" display="inline" fill="#3B5999" width="512" height="500"/>
	<g id="Frame" display="inline">
		<rect x="-123.553" y="-92.553" fill="#FFFFFF" width="1024" height="0.438"/>
		<rect x="-123.553" y="-72.553" fill="#FFFFFF" width="1024" height="0.438"/>
		<rect x="368.228" y="-112.553" fill="#FFFFFF" width="0.438" height="500"/>
		<rect x="-103.553" y="-112.553" fill="#FFFFFF" width="0.438" height="500"/>
		<rect x="408.228" y="-112.553" fill="#FFFFFF" width="0.438" height="500"/>
		<rect x="880.009" y="-112.553" fill="#FFFFFF" width="0.438" height="500"/>
		<rect x="-123.553" y="367.01" fill="#FFFFFF" width="1024" height="0.438"/>
	</g>
	<g id="Text" display="inline">
		<text transform="matrix(1 0 0 1 -96.0527 -78.521)"><tspan x="0" y="0" fill="#333333" font-family="'Helvetica'" font-size="10">Facebook </tspan><tspan x="42.66" y="0" fill="#333333" font-family="'Helvetica'" font-size="10">“</tspan><tspan x="47.02" y="0" fill="#333333" font-family="'Helvetica'" font-size="10" letter-spacing="1">f</tspan><tspan x="50.949" y="0" fill="#333333" font-family="'Helvetica'" font-size="10">” Logo</tspan></text>
		<text transform="matrix(1 0 0 1 318.9551 -78.521)" fill="#333333" font-family="'Helvetica'" font-size="10">RGB / .eps</text>
		<text transform="matrix(1 0 0 1 415.9468 -78.521)"><tspan x="0" y="0" fill="#FFFFFF" font-family="'Helvetica'" font-size="10">Facebook </tspan><tspan x="42.66" y="0" fill="#FFFFFF" font-family="'Helvetica'" font-size="10">“</tspan><tspan x="47.02" y="0" fill="#FFFFFF" font-family="'Helvetica'" font-size="10" letter-spacing="1">f</tspan><tspan x="50.949" y="0" fill="#FFFFFF" font-family="'Helvetica'" font-size="10">” Logo</tspan></text>
		<text transform="matrix(1 0 0 1 830.9546 -78.521)" fill="#FFFFFF" font-family="'Helvetica'" font-size="10">RGB / .eps</text>
	</g>
</g>
<g id="White" display="none">
	<path id="White_2_" display="inline" fill="#FFFFFF" d="M764.164,0H526.73C518.593,0,512,6.594,512,14.73v237.434
		c0,8.135,6.594,14.73,14.73,14.73h127.826V163.539h-34.781v-40.28h34.781V93.554c0-34.473,21.055-53.244,51.807-53.244
		c14.73,0,27.391,1.097,31.08,1.587v36.026l-21.328,0.01c-16.725,0-19.963,7.947-19.963,19.609v25.717h39.887l-5.193,40.28h-34.693
		v103.355h68.012c8.135,0,14.73-6.596,14.73-14.73V14.73C778.894,6.594,772.298,0,764.164,0z"/>
</g>
<g id="Blue">
	<path id="Blue_1_" fill="#3B5999" d="M266.893,0H0v266.895h142.556V163.539h-34.781v-40.28h34.781V93.554
		c0-34.473,21.054-53.244,51.806-53.244c14.73,0,27.391,1.097,31.081,1.587v36.026l-21.33,0.01
		c-16.724,0-19.962,7.947-19.962,19.609v25.717h39.887l-5.194,40.28h-34.693v103.355h82.742V0z"/>
</g>
</svg>
