<svg xmlns="http://www.w3.org/2000/svg" width="30" height="30" viewBox="7.221 8.438 30 30"><path fill="#DC4E41" d="M7.22 8.438h30v30h-30z"/><g fill="#FFF"><path d="M18.425 19.244c1.29 0 2.153.55 2.646 1.025l1.804-1.737c-1.157-1.083-2.657-1.737-4.45-1.737a6.637 6.637 0 0 0-6.642 6.642 6.637 6.637 0 0 0 6.642 6.643c3.833 0 6.376-2.694 6.376-6.49 0-.437-.047-.77-.104-1.1h-6.27v2.276h3.766c-.152.977-1.14 2.865-3.767 2.865-2.27 0-4.118-1.878-4.118-4.192s1.85-4.194 4.118-4.194zM30.76 20.59h-1.897v1.9h-1.898v1.896h1.898v1.897h1.897v-1.897h1.898V22.49H30.76z"/></g></svg>