<?xml version="1.0" encoding="utf-8"?>
<!DOCTYPE svg PUBLIC "-//W3C//DTD SVG 1.1//EN" "http://www.w3.org/Graphics/SVG/1.1/DTD/svg11.dtd">
<svg version="1.1" id="Layer_1" xmlns="http://www.w3.org/2000/svg" xmlns:xlink="http://www.w3.org/1999/xlink" x="0px" y="0px"
	 width="42.27px" height="42.27px" viewBox="0 -3.135 42.27 42.27" enable-background="new 0 -3.135 42.27 42.27"
	 xml:space="preserve">
<path fill="#007BB6" d="M0-3.135v42.27h42.27v-42.27H0z"/>
<g>
	<path fill="#FFFFFF" d="M7.772,13.365h5.734v18.428H7.772V13.365z M10.64,4.205c1.832,0,3.32,1.487,3.32,3.321
		c0,1.833-1.488,3.321-3.32,3.321c-1.839,0-3.323-1.487-3.323-3.321S8.801,4.205,10.64,4.205"/>
	<path fill="#FFFFFF" d="M17.096,13.365h5.49v2.52h0.078c0.764-1.449,2.631-2.977,5.42-2.977c5.797,0,6.869,3.815,6.869,8.779
		v10.107h-5.727v-8.964c0-2.138-0.037-4.887-2.975-4.887c-2.98,0-3.436,2.33-3.436,4.733v9.114h-5.72V13.365L17.096,13.365z"/>
</g>
</svg>
