<?xml version="1.0" encoding="utf-8"?>
<!DOCTYPE svg PUBLIC "-//W3C//DTD SVG 1.1//EN" "http://www.w3.org/Graphics/SVG/1.1/DTD/svg11.dtd">
<svg version="1.1" id="Layer_1" xmlns="http://www.w3.org/2000/svg" xmlns:xlink="http://www.w3.org/1999/xlink" x="0px" y="0px"
	 width="500px" height="500px" viewBox="0 0 500 500" enable-background="new 0 0 500 500" xml:space="preserve">
<rect fill="#3D6CB0" width="500" height="500"/>
<g>
	<g>
		<path fill="#FFFFFF" d="M190.775,200.965c15.451,0,27.981-12.531,27.981-27.98c0-15.456-12.53-27.986-27.981-27.986
			c-15.456,0-27.986,12.53-27.986,27.986C162.789,188.434,175.319,200.965,190.775,200.965z"/>
		<path fill="#FFFFFF" d="M309.356,200.965c15.456,0,27.987-12.531,27.987-27.98c0-15.456-12.531-27.986-27.987-27.986
			s-27.986,12.53-27.986,27.986C281.37,188.434,293.9,200.965,309.356,200.965z"/>
		<path fill="#FFFFFF" d="M402.181,317.761l-34.794-59.621c-4.666-7.999-14.939-10.71-22.952-6.036
			c-8.005,4.671-10.708,14.948-6.031,22.955l4.134,7.09c-24.229,25.075-57.366,39.295-92.595,39.295
			c-35.19,0-68.3-14.195-92.524-39.22l4.182-7.165c4.672-8.007,1.971-18.284-6.034-22.955c-8.016-4.684-18.289-1.966-22.954,6.036
			l-34.792,59.621c-4.668,8.008-1.968,18.286,6.037,22.957c2.659,1.55,5.571,2.296,8.442,2.296c5.775,0,11.394-2.989,14.51-8.335
			l13.186-22.589c29.801,27.475,68.737,42.912,109.948,42.912c41.249,0,80.216-15.462,110.025-42.989l13.224,22.666
			c3.119,5.346,8.734,8.335,14.51,8.335c2.868,0,5.78-0.746,8.439-2.296C404.146,336.047,406.852,325.769,402.181,317.761z"/>
	</g>
</g>
</svg>
