<svg xmlns="http://www.w3.org/2000/svg" width="116.088" height="115.537"><defs><clipPath><path d="m0 0h928.699v924h-928.699v-924z"/></clipPath></defs><g transform="matrix(.125 0 0 -.125 0 115.537)"><path d="m0 0h928.699v924.336h-928.699v-924.336z" fill="#f4731c"/><path d="m464.355 688.02c38.165 0 69.2-31.04 69.2-69.204 0-38.125-31.035-69.168-69.2-69.168-38.125 0-69.199 31.043-69.199 69.168 0 38.164 31.074 69.204 69.199 69.204zm0-236.282c92.188 0 167.129 74.942 167.129 167.078 0 92.18-74.941 167.153-167.129 167.153-92.167 0-167.128-74.973-167.128-167.153 0-92.136 74.961-167.078 167.128-167.078" fill="#fff"/><path d="m531.973 315.398c34.023 7.754 66.836 21.211 97.05 40.2 22.872 14.414 29.766 44.644 15.352 67.515-14.395 22.922-44.609 29.817-67.52 15.403-68.457-43.055-156.601-43.036-225.019 0-22.91 14.414-53.125 7.519-67.5-15.403-14.414-22.886-7.539-53.101 15.332-67.515 30.215-18.965 63.027-32.446 97.051-40.2l-93.438-93.433c-19.101-19.121-19.101-50.117.02-69.238 9.57-9.551 22.09-14.336 34.609-14.336 12.539 0 25.078 4.785 34.649 14.336l91.777 91.816 91.855-91.816c19.102-19.122 50.098-19.122 69.219 0 19.141 19.121 19.141 50.132 0 69.238l-93.437 93.433" fill="#fff"/></g></svg>