<svg xmlns="http://www.w3.org/2000/svg" width="404.98" height="404.98" viewBox="0 0 404.98 404.98"><path fill="#55ACEE" d="M0 0h404.98v404.98H0z"/><path fill="#FFF" d="M334.514 120.6a108.302 108.302 0 0 1-31.114 8.53c11.186-6.706 19.775-17.322 23.82-29.973a108.472 108.472 0 0 1-34.4 13.146c-9.883-10.528-23.962-17.107-39.543-17.107-29.918 0-54.174 24.254-54.174 54.172 0 4.246.478 8.38 1.403 12.345-45.023-2.258-84.94-23.827-111.658-56.6-4.664 8-7.334 17.305-7.334 27.234 0 18.794 9.563 35.375 24.1 45.09a53.97 53.97 0 0 1-24.538-6.775 38.51 38.51 0 0 0-.005.68c0 26.25 18.674 48.143 43.457 53.12a54.348 54.348 0 0 1-24.465.93c6.895 21.52 26.9 37.183 50.605 37.62-18.54 14.53-41.898 23.19-67.28 23.19-4.372 0-8.685-.257-12.922-.757 23.974 15.37 52.45 24.338 83.042 24.338 99.643 0 154.13-82.547 154.13-154.132 0-2.348-.052-4.684-.155-7.007a110.066 110.066 0 0 0 27.032-28.044z"/></svg>