<?xml version="1.0" encoding="utf-8"?>
<!DOCTYPE svg PUBLIC "-//W3C//DTD SVG 1.1//EN" "http://www.w3.org/Graphics/SVG/1.1/DTD/svg11.dtd">
<svg version="1.1" id="Layer_1" xmlns="http://www.w3.org/2000/svg" xmlns:xlink="http://www.w3.org/1999/xlink" x="0px" y="0px"
	 width="404.98px" height="404.98px" viewBox="0 0 404.98 404.98" enable-background="new 0 0 404.98 404.98" xml:space="preserve">
<rect x="0" y="0" fill="#55ACEE" width="404.98" height="404.98"/>
<path fill="#FFFFFF" d="M334.514,120.599c-9.715,4.308-20.155,7.221-31.114,8.53c11.186-6.705,19.775-17.321,23.819-29.972
	c-10.466,6.208-22.061,10.716-34.4,13.146c-9.882-10.528-23.961-17.107-39.542-17.107c-29.918,0-54.174,24.254-54.174,54.172
	c0,4.246,0.478,8.38,1.403,12.345c-45.023-2.258-84.939-23.827-111.658-56.601c-4.664,8-7.334,17.306-7.334,27.235
	c0,18.794,9.563,35.375,24.099,45.09c-8.88-0.282-17.233-2.718-24.537-6.775c-0.004,0.226-0.005,0.453-0.005,0.681
	c0,26.248,18.673,48.142,43.456,53.119c-4.547,1.236-9.333,1.9-14.273,1.9c-3.49,0-6.884-0.34-10.192-0.971
	c6.895,21.52,26.899,37.184,50.605,37.621c-18.541,14.529-41.898,23.189-67.279,23.189c-4.373,0-8.686-0.256-12.923-0.756
	c23.974,15.371,52.449,24.338,83.042,24.338c99.643,0,154.131-82.547,154.131-154.132c0-2.349-0.053-4.685-0.156-7.008
	C318.067,141.004,327.253,131.463,334.514,120.599z"/>
</svg>
