<svg xmlns="http://www.w3.org/2000/svg" width="445" height="445" viewBox="0 0 445 445"><path fill="#4D75A3" d="M0 0h445v445H0z"/><path fill="#FFF" d="M219.04 305.526h16.974s5.126-.564 7.747-3.386c2.41-2.592 2.333-7.456 2.333-7.456s-.332-22.775 10.237-26.13c10.423-3.307 23.804 22.013 37.985 31.748 10.726 7.365 18.875 5.753 18.875 5.753l37.925-.53s19.84-1.224 10.432-16.82c-.77-1.274-5.48-11.54-28.2-32.627-23.78-22.072-20.593-18.5 8.053-56.68 17.444-23.25 24.418-37.445 22.238-43.525-2.076-5.792-14.907-4.262-14.907-4.262l-42.7.266s-3.167-.432-5.514.974c-2.295 1.373-3.768 4.58-3.768 4.58s-6.762 17.99-15.77 33.295c-19.015 32.286-26.618 33.995-29.727 31.986-7.23-4.672-5.423-18.768-5.423-28.785 0-31.29 4.745-44.336-9.242-47.712-4.642-1.12-8.06-1.86-19.932-1.98-15.236-.157-28.13.045-35.432 3.622-4.857 2.38-8.605 7.68-6.32 7.984 2.822.375 9.212 1.725 12.6 6.334 4.378 5.955 4.224 19.323 4.224 19.323s2.515 36.833-5.872 41.407c-5.755 3.138-13.65-3.27-30.603-32.56-8.686-15.005-15.243-31.593-15.243-31.593s-1.263-3.098-3.52-4.757c-2.736-2.01-6.56-2.646-6.56-2.646l-40.578.265s-6.09.17-8.33 2.82c-1.99 2.356-.158 7.228-.158 7.228s31.767 74.322 67.737 111.775c32.99 34.345 70.44 32.09 70.44 32.09z"/></svg>