<?xml version="1.0" encoding="utf-8"?>
<!DOCTYPE svg PUBLIC "-//W3C//DTD SVG 1.1//EN" "http://www.w3.org/Graphics/SVG/1.1/DTD/svg11.dtd">
<svg version="1.1" id="Layer_1" xmlns="http://www.w3.org/2000/svg" xmlns:xlink="http://www.w3.org/1999/xlink" x="0px" y="0px"
	 width="445px" height="445px" viewBox="0 0 445 445" enable-background="new 0 0 445 445" xml:space="preserve">
<rect x="0" y="0" fill="#4D75A3" width="445" height="445"/>
<path fill="#FFFFFF" d="M219.04,305.526h16.974c0,0,5.126-0.564,7.747-3.386c2.409-2.592,2.332-7.456,2.332-7.456
	s-0.332-22.775,10.237-26.13c10.423-3.307,23.804,22.013,37.985,31.748c10.726,7.365,18.875,5.753,18.875,5.753l37.925-0.529
	c0,0,19.839-1.225,10.432-16.822c-0.771-1.273-5.479-11.538-28.199-32.626c-23.781-22.072-20.594-18.501,8.052-56.68
	c17.444-23.251,24.418-37.445,22.238-43.525c-2.076-5.792-14.907-4.262-14.907-4.262l-42.7,0.265c0,0-3.168-0.432-5.515,0.974
	c-2.295,1.373-3.768,4.581-3.768,4.581s-6.762,17.99-15.771,33.294c-19.014,32.286-26.617,33.995-29.726,31.986
	c-7.231-4.673-5.424-18.769-5.424-28.786c0-31.289,4.745-44.336-9.242-47.712c-4.642-1.121-8.061-1.861-19.932-1.981
	c-15.236-0.156-28.13,0.046-35.432,3.623c-4.858,2.38-8.606,7.679-6.322,7.984c2.823,0.376,9.213,1.726,12.602,6.335
	c4.377,5.955,4.223,19.323,4.223,19.323s2.515,36.833-5.872,41.407c-5.755,3.138-13.651-3.269-30.603-32.561
	c-8.685-15.004-15.242-31.592-15.242-31.592s-1.263-3.099-3.521-4.758c-2.735-2.01-6.559-2.646-6.559-2.646l-40.578,0.265
	c0,0-6.09,0.17-8.328,2.819c-1.991,2.357-0.159,7.229-0.159,7.229s31.767,74.322,67.737,111.775
	C181.589,307.78,219.04,305.526,219.04,305.526L219.04,305.526z"/>
</svg>
